<svg width="48" height="48" viewBox="0 0 48 48" fill="none" xmlns="http://www.w3.org/2000/svg">
<path d="M24 48C10.7452 48 0 37.2548 0 24C0 10.7452 10.7452 0 24 0C37.2548 0 48 10.7452 48 24C47.9855 37.2488 37.2488 47.9855 24 48ZM4.8 24.4128C4.91356 34.9758 13.5387 43.4629 24.1021 43.4064C34.6655 43.3493 43.1989 34.77 43.1989 24.2064C43.1989 13.6428 34.6655 5.06346 24.1021 5.00639C13.5387 4.9499 4.91356 13.437 4.8 24V24.4128ZM26.4 36H21.6V26.4H12V21.6H21.6V12H26.4V21.6H36V26.4H26.4V36Z" fill="#E4DAFF"/>
</svg>
