<svg width="35" height="35" viewBox="0 0 35 35" fill="none" xmlns="http://www.w3.org/2000/svg">
<path d="M31.354 34.214L19.924 22.782C14.8394 26.3969 7.8329 25.5127 3.80577 20.7478C-0.221361 15.983 0.0743399 8.92716 4.48602 4.51598C8.89654 0.102871 15.9531 -0.194109 20.7188 3.83281C25.4845 7.85973 26.3693 14.8669 22.754 19.952L34.184 31.384L31.356 34.212L31.354 34.214ZM12.97 4.99995C9.17743 4.9991 5.9054 7.66133 5.13497 11.3748C4.36454 15.0884 6.30744 18.8325 9.78738 20.3405C13.2673 21.8484 17.3278 20.7056 19.5105 17.6041C21.6932 14.5025 21.3982 10.2946 18.804 7.52798L20.014 8.72798L18.65 7.36798L18.626 7.34398C17.1296 5.83833 15.0928 4.99423 12.97 4.99995Z" fill="#E4DAFF"/>
</svg>
