<svg width="32" height="32" viewBox="0 0 32 32" fill="none" xmlns="http://www.w3.org/2000/svg">
<path d="M18.8815 31.8333H13.1182C12.3742 31.8333 11.7305 31.3156 11.5712 30.5888L10.9268 27.6058C10.0672 27.2292 9.25202 26.7581 8.49641 26.2014L5.58783 27.1277C4.8785 27.3539 4.10739 27.0553 3.73533 26.4104L0.84733 21.4213C0.479344 20.7761 0.606123 19.9623 1.15291 19.4596L3.40916 17.4012C3.30656 16.4688 3.30656 15.528 3.40916 14.5956L1.15291 12.542C0.605317 12.0391 0.478489 11.2242 0.84733 10.5787L3.729 5.58641C4.10106 4.94151 4.87216 4.64296 5.5815 4.86916L8.49008 5.79541C8.87651 5.50907 9.27879 5.24476 9.695 5.00374C10.0945 4.77842 10.5057 4.57441 10.9268 4.39257L11.5728 1.41274C11.7313 0.68594 12.3743 0.167439 13.1182 0.166656H18.8815C19.6254 0.167439 20.2684 0.68594 20.4268 1.41274L21.0792 4.39416C21.5237 4.58972 21.9567 4.8107 22.3759 5.05599C22.7674 5.28205 23.1459 5.52997 23.5096 5.79857L26.4197 4.87232C27.1286 4.64697 27.8988 4.94541 28.2707 5.58957L31.1523 10.5818C31.5203 11.227 31.3935 12.0409 30.8467 12.5436L28.5905 14.6019C28.6931 15.5343 28.6931 16.4752 28.5905 17.4076L30.8467 19.4659C31.3935 19.9686 31.5203 20.7825 31.1523 21.4277L28.2707 26.4199C27.8988 27.0641 27.1286 27.3625 26.4197 27.1372L23.5096 26.2109C23.1413 26.4821 22.7587 26.7332 22.3632 26.963C21.9481 27.2035 21.52 27.4208 21.0807 27.6137L20.4268 30.5888C20.2677 31.315 19.6249 31.8327 18.8815 31.8333ZM15.9935 9.66666C12.4957 9.66666 9.66016 12.5022 9.66016 16C9.66016 19.4978 12.4957 22.3333 15.9935 22.3333C19.4913 22.3333 22.3268 19.4978 22.3268 16C22.3268 12.5022 19.4913 9.66666 15.9935 9.66666Z" fill="#BCA4FF"/>
</svg>
