<svg width="40" height="40" viewBox="0 0 40 40" fill="none" xmlns="http://www.w3.org/2000/svg">
<path d="M20 40.0001C16.9761 40.0086 13.9904 39.3244 11.272 38C10.2771 37.5161 9.32386 36.9508 8.422 36.31L8.148 36.11C5.66764 34.2792 3.63975 31.9045 2.22 29.168C0.751473 26.3358 -0.0101843 23.1903 -9.99953e-05 20C-9.99953e-05 8.9543 8.95431 0 20 0C31.0457 0 40.0001 8.9543 40.0001 20C40.0101 23.1888 39.2491 26.3327 37.782 29.164C36.3642 31.8989 34.3392 34.2728 31.862 36.104C30.9275 36.788 29.9359 37.3902 28.898 37.904L28.738 37.984C26.0178 39.3154 23.0285 40.0051 20 40.0001ZM20 30C17.003 29.9941 14.2553 31.6681 12.886 34.334C17.3688 36.5544 22.6312 36.5544 27.114 34.334V34.324C25.743 31.661 22.9952 29.9908 20 30ZM20 26C24.3322 26.0057 28.3268 28.3402 30.458 32.112L30.488 32.086L30.516 32.062L30.482 32.092L30.462 32.108C35.52 27.7382 37.3286 20.6847 34.9973 14.4202C32.666 8.15575 26.6862 4.00063 20.002 4.00063C13.3178 4.00063 7.33799 8.15575 5.0067 14.4202C2.67542 20.6847 4.484 27.7382 9.542 32.108C11.6745 28.3381 15.6687 26.0053 20 26ZM20 24C15.5817 24 12 20.4183 12 16C12 11.5817 15.5817 8 20 8C24.4183 8 28 11.5817 28 16C28 18.1217 27.1571 20.1566 25.6569 21.6569C24.1566 23.1571 22.1217 24 20 24ZM20 12C17.7909 12 16 13.7909 16 16C16 18.2091 17.7909 20 20 20C22.2091 20 24 18.2091 24 16C24 13.7909 22.2091 12 20 12Z" fill="#E4DAFF"/>
</svg>
